<svg width="120" height="94" viewBox="0 0 120 94" fill="none" xmlns="http://www.w3.org/2000/svg">
<path d="M78.859 56.9301L80.0686 55.6307L81.7737 55.8957L80.9759 54.3377L81.7802 52.7473L80.0751 53.0835L78.8718 51.8293L78.6209 53.5942L77.0638 54.4153L78.6145 55.1717L78.859 56.9301Z" fill="white"/>
<path d="M66.1834 51.8681L66.8783 51.1182L67.8692 51.2733L67.4059 50.3683L67.8692 49.4438L66.8847 49.6377L66.1898 48.9201L66.0419 49.9416L65.141 50.4135L66.0419 50.8531L66.1834 51.8681Z" fill="white"/>
<path d="M83.5946 59.8975L84.296 59.1411L85.2804 59.2963L84.8172 58.3977L85.2869 57.4732L84.296 57.6671L83.6011 56.9431L83.4531 57.9645L82.5523 58.4429L83.4531 58.8825L83.5946 59.8975Z" fill="white"/>
<path d="M58.488 37.2509L59.1893 36.501L60.1737 36.6562L59.7105 35.7511L60.1802 34.833L59.1957 35.027L58.4944 34.3029L58.3464 35.3244L57.452 35.7963L58.3464 36.2359L58.488 37.2509Z" fill="white"/>
<path d="M62.7475 44.1748L63.2365 43.7094L63.9764 43.8387L63.6032 43.2374L63.9185 42.6556L63.1915 42.7526L62.6574 42.2612L62.5802 42.9142L61.9303 43.1922L62.6059 43.509L62.7475 44.1748Z" fill="white"/>
<path d="M39.7448 35.1239L40.2338 34.6585L40.9738 34.7878L40.6006 34.193L40.9158 33.6112L40.1888 33.7017L39.6547 33.2103L39.5775 33.8697L38.9276 34.1477L39.6032 34.4581L39.7448 35.1239Z" fill="white"/>
<path d="M64.459 38.7378L64.8579 38.3176L65.4113 38.4017L65.1539 37.8909L65.4177 37.3737L64.8579 37.4836L64.4654 37.0699L64.3818 37.6517L63.8735 37.9168L64.3818 38.1625L64.459 38.7378Z" fill="white"/>
<path d="M89.2826 62.212L89.5593 62.0633L89.8359 62.2185L89.7909 61.9017L90.0225 61.6754L89.7137 61.6302L89.585 61.3392L89.437 61.6237L89.1282 61.6689L89.3405 61.8952L89.2826 62.212Z" fill="white"/>
<path d="M90.4794 67.4097L90.7625 67.2675L91.0327 67.4162L90.9941 67.0994L91.2193 66.8796L90.9169 66.8279L90.7818 66.537L90.6402 66.8279L90.3249 66.8732L90.5437 67.093L90.4794 67.4097Z" fill="white"/>
<path d="M84.9266 62.5546L85.4349 62.2896L85.9239 62.5675L85.8467 61.9922L86.2649 61.5913L85.7051 61.5008L85.4735 60.9772L85.2097 61.4944L84.6434 61.5719L85.0359 61.9857L84.9266 62.5546Z" fill="white"/>
<path d="M88.266 65.9358L88.7743 65.6707L89.2633 65.9487L89.1861 65.3733L89.6043 64.9725L89.051 64.882L88.8129 64.3583L88.5491 64.8755L87.9829 64.9531L88.3754 65.3669L88.266 65.9358Z" fill="white"/>
<path d="M59.0155 54.4799L60.0193 53.4003L61.4349 53.6266L60.7721 52.3271L61.4413 51.0083L60.0257 51.2863L59.022 50.2454L58.8161 51.713L57.5228 52.3918L58.8096 53.0253L59.0155 54.4799Z" fill="white"/>
<path d="M71.704 49.5795L72.9137 48.2801L74.6188 48.5451L73.8209 46.9871L74.6317 45.3903L72.9201 45.7264L71.7169 44.4787L71.466 46.2436L69.9089 47.0647L71.4595 47.8211L71.704 49.5795Z" fill="white"/>
<path d="M71.659 56.413L72.4053 55.6113L73.4606 55.7794L72.9651 54.8096L73.4606 53.827L72.4053 54.0339L71.6654 53.2645L71.5045 54.3571L70.5458 54.8614L71.5045 55.3268L71.659 56.413Z" fill="white"/>
<path d="M52.4719 45.7393L53.7523 44.3558L55.5603 44.6403L54.711 42.9917L55.5668 41.2979L53.7587 41.6535L52.4783 40.3282L52.2145 42.203L50.5673 43.0693L52.2081 43.871L52.4719 45.7393Z" fill="white"/>
<path d="M26.992 41.1751L28.5941 38.0655L31.9657 37.6L29.6172 35.1369L30.2992 31.6975L27.2429 33.2879L24.296 31.6329L24.7593 35.0787L22.2499 37.4901L25.5957 38.0332L26.992 41.1751Z" fill="white"/>
<path d="M35.9164 29.5835L36.83 27.8056L38.7539 27.5406L37.4091 26.1312L37.8016 24.1723L36.0579 25.0839L34.3721 24.1335L34.6359 26.1053L33.2075 27.4824L35.1121 27.7862L35.9164 29.5835Z" fill="white"/>
<path d="M22.2241 26.5191L22.7517 25.4912L23.8649 25.3361L23.0863 24.5215L23.318 23.3837L22.3078 23.9138L21.3297 23.3643L21.4842 24.5021L20.6606 25.2973L21.7609 25.4783L22.2241 26.5191Z" fill="white"/>
<path d="M43.4895 29.4671L44.0236 28.4392L45.1367 28.2841L44.3582 27.4695L44.5834 26.3381L43.5732 26.8618L42.6016 26.3187L42.756 27.4566L41.926 28.2517L43.0263 28.4263L43.4895 29.4671Z" fill="white"/>
<path d="M21.3298 3.15488L21.8574 2.12696L22.9705 1.9718L22.192 1.15722L22.4172 0.0193948L21.407 0.549519L20.4354 0L20.5898 1.13783L19.7598 1.93301L20.8665 2.11403L21.3298 3.15488Z" fill="white"/>
<path d="M45.9667 40.8971L46.4944 39.8692L47.6075 39.714L46.8289 38.8995L47.0541 37.7681L46.0504 38.2918L45.0724 37.7422L45.2268 38.8865L44.3968 39.6817L45.5035 39.8563L45.9667 40.8971Z" fill="white"/>
<path d="M9.09168 12.0894L9.61929 11.0615L10.7324 10.9063L9.9603 10.0982L10.1855 8.96037L9.17532 9.48403L8.20374 8.94098L8.35172 10.0788L7.52813 10.874L8.6284 11.0485L9.09168 12.0894Z" fill="white"/>
<path d="M16.163 19.4077L16.5555 18.7547L17.392 18.6578L16.8064 18.1406L16.9737 17.4165L16.2209 17.7462L15.4874 17.3971L15.6032 18.1276L14.9855 18.6319L15.8156 18.7483L16.163 19.4077Z" fill="white"/>
<path d="M16.3689 13.0592L16.6649 12.4773L17.2955 12.3933L16.8515 11.9343L16.9802 11.2942L16.414 11.5916L15.8606 11.2813L15.9507 11.9213L15.481 12.3739L16.1051 12.4709L16.3689 13.0592Z" fill="white"/>
<path d="M15.2751 31.6199L16.0343 30.1395L17.63 29.9197L16.5169 28.7495L16.8386 27.1203L15.3909 27.8767L13.9946 27.0945L14.2134 28.7301L13.0295 29.8679L14.6123 30.1265L15.2751 31.6199Z" fill="white"/>
<path d="M22.0761 14.0289L22.8354 12.5484L24.4311 12.3286L23.318 11.1649L23.6397 9.53574L22.1919 10.2857L20.7957 9.50342L21.0145 11.139L19.8241 12.2833L21.4134 12.5355L22.0761 14.0289Z" fill="white"/>
<path d="M51.2429 33.8956L51.9957 32.4216L53.5978 32.1953L52.4847 31.0317L52.8064 29.4025L51.3587 30.1589L49.956 29.3702L50.1812 31.0058L48.9909 32.1501L50.5737 32.4022L51.2429 33.8956Z" fill="white"/>
<path d="M27.5002 22.2911L28.4139 20.5132L30.3378 20.2481L28.993 18.8388L29.3855 16.8799L27.6418 17.7915L25.956 16.8411L26.2198 18.8065L24.7914 20.1835L26.696 20.4938L27.5002 22.2911Z" fill="white"/>
<path d="M13.1646 6.69121L14.0783 4.91335L16.0021 4.64829L14.6574 3.2454L15.0499 1.28653L13.3062 2.19162L11.6204 1.24774L11.8906 3.21308L10.4558 4.59011L12.3668 4.89396L13.1646 6.69121Z" fill="white"/>
<path d="M38.8182 43.774L39.8156 41.8281L41.926 41.5371L40.4526 39.9985L40.8837 37.8457L38.9727 38.8413L37.126 37.8069L37.4156 39.9597L35.852 41.466L37.9367 41.8087L38.8182 43.774Z" fill="white"/>
<path d="M5.41124 26.9975L7.23858 23.4418L11.0863 22.9117L8.40319 20.0994L9.18175 16.1752L5.69435 17.9919L2.3292 16.1041L2.85682 20.0348L-2.28882e-05 22.7889L3.80909 23.403L5.41124 26.9975Z" fill="white"/>
</svg>
