<svg width="120" height="94" viewBox="0 0 120 94" fill="none" xmlns="http://www.w3.org/2000/svg">
<path d="M41.141 56.9301L39.9314 55.6307L38.2263 55.8957L39.0241 54.3377L38.2198 52.7473L39.9249 53.0835L41.1282 51.8293L41.3791 53.5942L42.9362 54.4153L41.3855 55.1717L41.141 56.9301Z" fill="white"/>
<path d="M53.8166 51.8681L53.1217 51.1182L52.1308 51.2733L52.5941 50.3683L52.1308 49.4438L53.1153 49.6377L53.8102 48.9201L53.9581 49.9416L54.859 50.4135L53.9581 50.8531L53.8166 51.8681Z" fill="white"/>
<path d="M36.4054 59.8975L35.704 59.1411L34.7196 59.2963L35.1828 58.3977L34.7131 57.4732L35.704 57.6671L36.3989 56.9431L36.5469 57.9645L37.4477 58.4429L36.5469 58.8825L36.4054 59.8975Z" fill="white"/>
<path d="M61.512 37.2509L60.8107 36.501L59.8263 36.6562L60.2895 35.7511L59.8198 34.833L60.8043 35.027L61.5056 34.3029L61.6536 35.3244L62.548 35.7963L61.6536 36.2359L61.512 37.2509Z" fill="white"/>
<path d="M57.2525 44.1748L56.7635 43.7094L56.0236 43.8387L56.3968 43.2374L56.0815 42.6556L56.8085 42.7526L57.3426 42.2612L57.4198 42.9142L58.0697 43.1922L57.3941 43.509L57.2525 44.1748Z" fill="white"/>
<path d="M80.2552 35.1239L79.7662 34.6585L79.0262 34.7878L79.3994 34.193L79.0842 33.6112L79.8112 33.7017L80.3453 33.2103L80.4225 33.8697L81.0724 34.1477L80.3968 34.4581L80.2552 35.1239Z" fill="white"/>
<path d="M55.541 38.7378L55.1421 38.3176L54.5887 38.4017L54.8461 37.8909L54.5823 37.3737L55.1421 37.4836L55.5346 37.0699L55.6182 37.6517L56.1265 37.9168L55.6182 38.1625L55.541 38.7378Z" fill="white"/>
<path d="M30.7174 62.212L30.4407 62.0633L30.1641 62.2185L30.2091 61.9017L29.9775 61.6754L30.2863 61.6302L30.415 61.3392L30.563 61.6237L30.8718 61.6689L30.6595 61.8952L30.7174 62.212Z" fill="white"/>
<path d="M29.5206 67.4097L29.2375 67.2675L28.9673 67.4162L29.0059 67.0994L28.7807 66.8796L29.0831 66.8279L29.2182 66.537L29.3598 66.8279L29.6751 66.8732L29.4563 67.093L29.5206 67.4097Z" fill="white"/>
<path d="M35.0734 62.5546L34.5651 62.2896L34.0761 62.5675L34.1533 61.9922L33.7351 61.5913L34.2949 61.5008L34.5265 60.9772L34.7903 61.4944L35.3566 61.5719L34.9641 61.9857L35.0734 62.5546Z" fill="white"/>
<path d="M31.734 65.9358L31.2257 65.6707L30.7367 65.9487L30.8139 65.3733L30.3957 64.9725L30.949 64.882L31.1871 64.3583L31.4509 64.8755L32.0171 64.9531L31.6246 65.3669L31.734 65.9358Z" fill="white"/>
<path d="M60.9845 54.4799L59.9807 53.4003L58.5651 53.6266L59.2279 52.3271L58.5587 51.0083L59.9743 51.2863L60.978 50.2454L61.1839 51.713L62.4772 52.3918L61.1904 53.0253L60.9845 54.4799Z" fill="white"/>
<path d="M48.296 49.5795L47.0863 48.2801L45.3812 48.5451L46.1791 46.9871L45.3683 45.3903L47.0799 45.7264L48.2831 44.4787L48.534 46.2436L50.0911 47.0647L48.5405 47.8211L48.296 49.5795Z" fill="white"/>
<path d="M48.341 56.413L47.5947 55.6113L46.5394 55.7794L47.0349 54.8096L46.5394 53.827L47.5947 54.0339L48.3346 53.2645L48.4955 54.3571L49.4542 54.8614L48.4955 55.3268L48.341 56.413Z" fill="white"/>
<path d="M67.5281 45.7393L66.2477 44.3558L64.4397 44.6403L65.289 42.9917L64.4332 41.2979L66.2413 41.6535L67.5217 40.3282L67.7855 42.203L69.4327 43.0693L67.7919 43.871L67.5281 45.7393Z" fill="white"/>
<path d="M93.008 41.1751L91.4059 38.0655L88.0343 37.6L90.3828 35.1369L89.7008 31.6975L92.7571 33.2879L95.704 31.6329L95.2407 35.0787L97.7501 37.4901L94.4043 38.0332L93.008 41.1751Z" fill="white"/>
<path d="M84.0836 29.5835L83.17 27.8056L81.2461 27.5406L82.5909 26.1312L82.1984 24.1723L83.9421 25.0839L85.6279 24.1335L85.3641 26.1053L86.7925 27.4824L84.8879 27.7862L84.0836 29.5835Z" fill="white"/>
<path d="M97.7759 26.5191L97.2483 25.4912L96.1351 25.3361L96.9137 24.5215L96.682 23.3837L97.6922 23.9138L98.6703 23.3643L98.5158 24.5021L99.3394 25.2973L98.2391 25.4783L97.7759 26.5191Z" fill="white"/>
<path d="M76.5105 29.4671L75.9764 28.4392L74.8633 28.2841L75.6418 27.4695L75.4166 26.3381L76.4268 26.8618L77.3984 26.3187L77.244 27.4566L78.074 28.2517L76.9737 28.4263L76.5105 29.4671Z" fill="white"/>
<path d="M98.6702 3.15488L98.1426 2.12696L97.0295 1.9718L97.808 1.15722L97.5828 0.0193948L98.593 0.549519L99.5646 0L99.4102 1.13783L100.24 1.93301L99.1335 2.11403L98.6702 3.15488Z" fill="white"/>
<path d="M74.0333 40.8971L73.5056 39.8692L72.3925 39.714L73.1711 38.8995L72.9459 37.7681L73.9496 38.2918L74.9276 37.7422L74.7732 38.8865L75.6032 39.6817L74.4965 39.8563L74.0333 40.8971Z" fill="white"/>
<path d="M110.908 12.0894L110.381 11.0615L109.268 10.9063L110.04 10.0982L109.814 8.96037L110.825 9.48403L111.796 8.94098L111.648 10.0788L112.472 10.874L111.372 11.0485L110.908 12.0894Z" fill="white"/>
<path d="M103.837 19.4077L103.444 18.7547L102.608 18.6578L103.194 18.1406L103.026 17.4165L103.779 17.7462L104.513 17.3971L104.397 18.1276L105.014 18.6319L104.184 18.7483L103.837 19.4077Z" fill="white"/>
<path d="M103.631 13.0592L103.335 12.4773L102.705 12.3933L103.148 11.9343L103.02 11.2942L103.586 11.5916L104.139 11.2813L104.049 11.9213L104.519 12.3739L103.895 12.4709L103.631 13.0592Z" fill="white"/>
<path d="M104.725 31.6199L103.966 30.1395L102.37 29.9197L103.483 28.7495L103.161 27.1203L104.609 27.8767L106.005 27.0945L105.787 28.7301L106.971 29.8679L105.388 30.1265L104.725 31.6199Z" fill="white"/>
<path d="M97.9239 14.0289L97.1646 12.5484L95.5689 12.3286L96.682 11.1649L96.3603 9.53574L97.8081 10.2857L99.2043 9.50342L98.9855 11.139L100.176 12.2833L98.5866 12.5355L97.9239 14.0289Z" fill="white"/>
<path d="M68.7571 33.8956L68.0043 32.4216L66.4022 32.1953L67.5153 31.0317L67.1936 29.4025L68.6413 30.1589L70.044 29.3702L69.8188 31.0058L71.0091 32.1501L69.4263 32.4022L68.7571 33.8956Z" fill="white"/>
<path d="M92.4998 22.2911L91.5861 20.5132L89.6622 20.2481L91.007 18.8388L90.6145 16.8799L92.3582 17.7915L94.044 16.8411L93.7802 18.8065L95.2086 20.1835L93.304 20.4938L92.4998 22.2911Z" fill="white"/>
<path d="M106.835 6.69121L105.922 4.91335L103.998 4.64829L105.343 3.2454L104.95 1.28653L106.694 2.19162L108.38 1.24774L108.109 3.21308L109.544 4.59011L107.633 4.89396L106.835 6.69121Z" fill="white"/>
<path d="M81.1818 43.774L80.1844 41.8281L78.074 41.5371L79.5474 39.9985L79.1163 37.8457L81.0273 38.8413L82.874 37.8069L82.5844 39.9597L84.148 41.466L82.0633 41.8087L81.1818 43.774Z" fill="white"/>
<path d="M114.589 26.9975L112.761 23.4418L108.914 22.9117L111.597 20.0994L110.818 16.1752L114.306 17.9919L117.671 16.1041L117.143 20.0348L120 22.7889L116.191 23.403L114.589 26.9975Z" fill="white"/>
</svg>
