<svg width="280" height="190" viewBox="0 0 280 190" fill="none" xmlns="http://www.w3.org/2000/svg">
<g clip-path="url(#clip0_18:196)">
<path d="M170.805 38.4294C174.141 30.311 178.612 22.7052 184.084 15.8383C188.432 10.432 196.464 0.322057 204.428 2.28354C218.108 5.65025 199.376 21.8008 195.086 25.2065C188.003 30.6772 180.279 35.2651 172.085 38.8686C170.941 39.3858 171.938 41.0643 173.062 40.547C183.908 35.6677 194.227 29.3051 202.816 21.0298C207.379 16.6189 216.114 6.68469 207.564 1.45408C199.483 -3.49353 190.699 5.41608 185.755 10.8516C178.625 18.8314 172.926 27.9791 168.909 37.8927C168.43 39.054 170.326 39.5517 170.795 38.4099L170.805 38.4294Z" fill="#181818"/>
<path d="M170.805 37.9121C166.783 28.0145 161.088 18.8809 153.968 10.91C149.083 5.53304 140.161 -3.51319 132.159 1.51249C123.667 6.83093 132.286 16.6286 136.908 21.0882C145.497 29.3831 155.815 35.7261 166.662 40.6054C167.795 41.1227 168.792 39.4442 167.639 38.927C159.445 35.3212 151.721 30.7335 144.637 25.265C140.455 21.9568 121.576 5.7477 135.305 2.34195C143.318 0.390226 151.262 10.4318 155.649 15.8967C161.119 22.7629 165.587 30.369 168.919 38.4879C169.397 39.6296 171.283 39.1319 170.805 37.9706V37.9121Z" fill="#181818"/>
<path d="M210.252 38.166H131.103C128.405 38.166 126.217 40.3506 126.217 43.0453V90.6868C126.217 93.3816 128.405 95.5661 131.103 95.5661H210.252C212.95 95.5661 215.137 93.3816 215.137 90.6868V43.0453C215.137 40.3506 212.95 38.166 210.252 38.166Z" fill="#87D89D"/>
<path d="M215.401 38.166H125.954C123.255 38.166 121.068 40.3506 121.068 43.0453V52.56C121.068 55.2547 123.255 57.4393 125.954 57.4393H215.401C218.099 57.4393 220.287 55.2547 220.287 52.56V43.0453C220.287 40.3506 218.099 38.166 215.401 38.166Z" fill="#87D89D"/>
<path d="M126.706 59.3128H214.649C214.908 59.3128 215.157 59.21 215.34 59.027C215.523 58.844 215.626 58.5958 215.626 58.3369C215.626 58.0781 215.523 57.8299 215.34 57.6469C215.157 57.4639 214.908 57.3611 214.649 57.3611H126.706C126.447 57.3611 126.198 57.4639 126.015 57.6469C125.832 57.8299 125.729 58.0781 125.729 58.3369C125.729 58.5958 125.832 58.844 126.015 59.027C126.198 59.21 126.447 59.3128 126.706 59.3128Z" fill="#181818"/>
<path d="M168.889 37.6292V87.886C168.889 88.1448 168.992 88.393 169.175 88.576C169.359 88.759 169.607 88.8618 169.866 88.8618C170.126 88.8618 170.374 88.759 170.557 88.576C170.741 88.393 170.844 88.1448 170.844 87.886V37.6292C170.844 37.3704 170.741 37.1222 170.557 36.9392C170.374 36.7561 170.126 36.6533 169.866 36.6533C169.607 36.6533 169.359 36.7561 169.175 36.9392C168.992 37.1222 168.889 37.3704 168.889 37.6292Z" fill="#181818"/>
<path d="M71.2336 190.01L102.326 149.902C102.326 149.902 256.715 118.957 271.489 114.498C284.026 110.711 283.537 92.814 264.483 91.3502C245.429 89.8864 169.866 87.8859 169.866 87.8859C169.866 87.8859 131.269 78.4006 105.639 77.0929C80.0085 75.7853 56.5667 81.211 32.2457 111.58C7.92462 141.949 0 152.341 0 152.341C0 152.341 35.5092 184.223 71.2336 190.01Z" fill="#FFDDC4"/>
<path d="M130.439 82.1478C130.439 82.1478 190.816 81.9429 202.366 81.7574C209.646 81.6501 220.502 83.3969 219.202 93.7996C217.903 104.202 190.103 110.282 190.103 110.282L144.07 112.234L130.439 82.1478Z" fill="#FFDDC4"/>
<path d="M156.685 122.158C170.508 118.528 184.188 114.41 197.725 109.804C206.431 106.876 221.469 103.793 221.176 91.9554C221.176 91.6965 221.073 91.4483 220.89 91.2653C220.707 91.0823 220.458 90.9795 220.199 90.9795C219.94 90.9795 219.691 91.0823 219.508 91.2653C219.325 91.4483 219.222 91.6965 219.222 91.9554C219.398 99.8501 211.483 102.953 205.229 105.159C199.64 107.11 194.028 109 188.393 110.829C177.723 114.283 166.974 117.432 156.147 120.275C156.023 120.309 155.908 120.368 155.806 120.447C155.705 120.527 155.621 120.625 155.558 120.737C155.43 120.963 155.398 121.23 155.468 121.48C155.538 121.73 155.705 121.942 155.931 122.069C156.157 122.196 156.425 122.228 156.675 122.158H156.685Z" fill="#181818"/>
<path d="M196.884 109.13C194.862 97.7324 210.31 93.1459 218.636 90.8819C218.886 90.8133 219.098 90.6483 219.227 90.4232C219.355 90.1981 219.388 89.9313 219.32 89.6816C219.251 89.4318 219.086 89.2195 218.86 89.0914C218.635 88.9633 218.368 88.9299 218.118 88.9985C208.493 91.6236 192.712 96.8054 194.999 109.648C195.214 110.887 197.099 110.36 196.884 109.13Z" fill="#181818"/>
<path d="M255.239 117.835C257.438 108.633 271.567 106.71 279.248 105.676C280.489 105.51 279.961 103.636 278.73 103.802C270.336 104.925 255.777 107.189 253.324 117.318C253.031 118.538 254.917 119.065 255.2 117.835H255.239Z" fill="#181818"/>
</g>
<defs>
<clipPath id="clip0_18:196">
<rect width="280" height="190" fill="white"/>
</clipPath>
</defs>
</svg>
