<svg width="265" height="233" viewBox="0 0 265 233" fill="none" xmlns="http://www.w3.org/2000/svg">
<g clip-path="url(#clip0_18:124)">
<path d="M141.927 50.1411C141.927 50.1411 146.607 31.0108 129.139 15.4422C111.672 -0.126364 89.4114 3.42395 89.4114 3.42395C90.818 15.568 95.7328 27.0366 103.553 36.4224C115.067 50.2101 141.927 50.1411 141.927 50.1411Z" fill="#E2BAA4"/>
<path d="M99.5729 30.0112C106.504 27.8391 113.554 26.0668 120.687 24.7029C122.132 24.4157 121.513 22.2096 120.068 22.4854C112.937 23.8492 105.891 25.6254 98.9653 27.8051C97.5546 28.2417 98.1507 30.4593 99.5729 30.0112Z" fill="black"/>
<path d="M105.537 37.7092C112.675 34.7795 120.201 32.9062 127.878 32.1482C129.323 31.9989 129.346 29.7009 127.878 29.8503C120 30.6093 112.274 32.5096 104.94 35.4917C103.598 36.0432 104.183 38.2722 105.56 37.7092H105.537Z" fill="black"/>
<path d="M149.313 33.1938C147.214 30.7654 145.791 27.8259 145.187 24.6711C144.583 21.5164 144.82 18.2579 145.873 15.2239C149.313 4.17077 159.635 0 159.635 0C159.635 0 164.223 9.19177 162.032 17.5908C159.842 25.9897 149.313 33.1938 149.313 33.1938Z" fill="#E2BAA4"/>
<path d="M46.449 89.5509L67.4714 66.7668L118.508 99.7078L78.3669 125.215L46.449 89.5509Z" fill="#FFDDC4"/>
<path d="M217.909 109.083C217.909 109.083 241.42 102.764 252.797 104.683C264.174 106.602 263.119 118.953 261.685 123.158C261.685 123.158 268.945 130.73 261.972 142.024C261.972 142.024 267.707 147.39 263.119 154.181C259.827 159.052 248.989 166.739 248.989 166.739L217.909 109.083Z" fill="#FFDDC4"/>
<path d="M149.462 68.5247C149.462 68.5247 148.74 50.8765 166.838 40.2944C184.936 29.7124 203.882 36.7556 203.882 36.7556C202.734 42.1617 200.529 47.2868 197.396 51.8359C194.262 56.3851 190.261 60.2684 185.624 63.2624C172.136 72.052 149.462 68.5247 149.462 68.5247Z" fill="#E2BAA4"/>
<path d="M149.05 69.1681C165.84 57.2303 182.86 45.304 202.518 38.5825C203.905 38.0999 203.309 35.8824 201.91 36.365C182.057 43.1554 164.854 55.1162 147.891 67.1919C146.745 68.0421 147.834 70.0298 149.038 69.1681H149.05Z" fill="black"/>
<path d="M169.682 55.1621C176.031 56.1291 182.254 57.7936 188.239 60.1257C189.615 60.6657 190.212 58.4482 188.847 57.9082C182.862 55.5747 176.639 53.9101 170.29 52.9446C168.845 52.7263 168.226 54.9323 169.682 55.1621Z" fill="black"/>
<path d="M180.818 48.3947C186.203 48.7333 191.51 49.8478 196.577 51.7037C197.964 52.2093 198.561 49.9803 197.185 49.4862C191.92 47.5745 186.408 46.4329 180.818 46.0967C179.35 46.0163 179.35 48.3143 180.818 48.3947Z" fill="black"/>
<path d="M90.4322 5.76784C108.641 13.0626 124.178 25.7797 134.943 42.2017C143.453 55.0473 150.208 70.5928 148.557 86.2993C148.396 87.77 150.69 87.7585 150.85 86.2993C152.582 69.823 145.288 53.3353 136.205 39.9842C125.168 23.5802 109.447 10.8942 91.0975 3.5848C89.7212 3.04478 89.1248 5.26229 90.4896 5.80231L90.4322 5.76784Z" fill="black"/>
<path d="M149.474 65.8131C146.873 44.1625 150.564 22.22 160.105 2.61964C160.759 1.29833 158.787 0.137864 158.121 1.47067C148.372 21.4174 144.573 43.7578 147.18 65.8131C147.352 67.2608 149.657 67.2723 149.474 65.8131Z" fill="black"/>
<path d="M199.834 100.018C196.234 100.016 192.664 100.682 189.305 101.983C185.754 96.489 181.04 91.8445 175.498 88.3781C169.956 84.9116 163.721 82.708 157.234 81.9231C150.748 81.1383 144.169 81.7913 137.962 83.8361C131.755 85.881 126.073 89.2675 121.318 93.7561C118.076 91.7851 114.423 90.5923 110.645 90.271C106.866 89.9498 103.065 90.5088 99.5376 91.9043C96.0106 93.2998 92.8539 95.494 90.3143 98.3152C87.7747 101.136 85.9212 104.508 84.8988 108.166C83.8763 111.825 83.7125 115.67 84.4205 119.402C85.1285 123.135 86.689 126.652 88.9798 129.68C91.2706 132.707 94.2295 135.162 97.6251 136.854C101.021 138.545 104.761 139.426 108.553 139.428H109.241C111.589 147.088 115.95 153.975 121.868 159.367C127.785 164.759 135.041 168.458 142.875 170.075C150.71 171.693 158.834 171.17 166.397 168.562C173.961 165.953 180.684 161.355 185.865 155.249C189.788 157.393 194.149 158.609 198.614 158.806C203.079 159.002 207.53 158.173 211.626 156.382C215.722 154.591 219.355 151.886 222.247 148.473C225.139 145.059 227.215 141.029 228.314 136.689C229.413 132.35 229.507 127.815 228.589 123.434C227.671 119.052 225.765 114.938 223.017 111.408C220.269 107.877 216.752 105.022 212.733 103.062C208.715 101.102 204.303 100.088 199.834 100.098V100.018Z" fill="black"/>
<path d="M47.5156 76.1539L76.3256 98.0533C76.3256 98.0533 101.167 89.436 120.538 98.6278C139.909 107.82 145.643 127.72 158.133 131.04C170.623 134.361 176.414 133.786 186.931 137.681C186.931 137.681 214.457 124.537 228.862 122.997C243.267 121.458 247.464 129.259 247.464 129.259C249.269 129.223 251.045 129.709 252.581 130.658C254.117 131.608 255.347 132.981 256.123 134.614C258.921 140.508 254.976 146.999 254.976 146.999C254.976 146.999 260.206 152.492 256.123 160.534C252.04 168.577 224.653 199.347 199.547 218.109C174.442 236.872 128.532 237.987 94.8018 220.924C56.9545 201.771 -0.0113525 140.875 -0.0113525 140.875C-0.0113525 140.875 13.9577 109.083 47.5156 76.1539Z" fill="#FFDDC4"/>
<path d="M187.436 192.315C203.871 181.802 218.758 168.991 233.312 156.076C239.505 150.584 252.809 139.83 249.655 129.822C249.208 128.421 246.983 129.018 247.441 130.431C248.806 134.659 245.973 138.922 243.542 142.174C238.851 148.459 232.761 153.537 226.855 158.627C213.815 169.864 200.786 181.032 186.243 190.339C185.005 191.131 186.152 193.119 187.39 192.315H187.436Z" fill="black"/>
<path d="M203.171 200.254C213.769 191.832 224.113 183.112 234.034 173.897C242.257 166.268 252.74 158.167 256.536 147.206C257.018 145.805 254.804 145.207 254.323 146.597C250.331 158.087 238.025 167.198 229.263 175.172C220.306 183.33 211.028 191.097 201.543 198.634C200.396 199.553 202.024 201.162 203.171 200.254Z" fill="black"/>
<path d="M120.24 158.937C131.433 161.902 142.834 164.246 154.257 166.164C164.946 167.968 175.864 168.876 186.473 165.912C192.643 164.2 198.951 160.661 200.293 153.87C201.967 145.46 195.648 138.405 188.032 135.785C186.633 135.303 186.037 137.52 187.425 138.003C194.994 140.6 201.52 149.366 196.6 157.041C191.68 164.717 179.534 165.314 171.632 165.544C163.305 165.785 155.025 164.062 146.882 162.511C138.154 160.845 129.426 159.006 120.836 156.766C120.543 156.685 120.229 156.724 119.965 156.875C119.7 157.026 119.506 157.276 119.426 157.57C119.345 157.864 119.384 158.178 119.535 158.443C119.685 158.708 119.935 158.902 120.228 158.983L120.24 158.937Z" fill="black"/>
<path d="M54.7868 82.5881C61.5191 87.6206 68.1593 92.7565 75.2127 97.3409C76.4513 98.1452 77.6097 96.192 76.3596 95.3647C69.3062 90.7688 62.6659 85.6444 55.9337 80.6004C54.7868 79.7157 53.6399 81.7494 54.7868 82.5881Z" fill="black"/>
<path d="M76.096 97.4558C81.3723 96.306 86.753 95.7054 92.1525 95.6634C93.632 95.606 93.632 93.308 92.1525 93.3655C86.556 93.4182 80.9797 94.0457 75.5111 95.2383C75.2176 95.319 74.9681 95.5133 74.8175 95.7783C74.667 96.0434 74.6277 96.3575 74.7083 96.6515C74.789 96.9456 74.9828 97.1955 75.2474 97.3464C75.5119 97.4972 75.8255 97.5366 76.119 97.4558H76.096Z" fill="black"/>
<path d="M245.686 125.376C250.4 123.596 255.492 123.065 260.47 123.836C261.903 124.066 262.534 121.848 261.078 121.619C255.701 120.745 250.191 121.275 245.079 123.158C243.714 123.675 244.299 125.893 245.686 125.376Z" fill="black"/>
<path d="M228.724 123.078C235.387 122.4 245.159 121.688 247.326 129.972C247.407 130.266 247.601 130.516 247.865 130.667C248.13 130.817 248.444 130.857 248.737 130.776C249.031 130.695 249.28 130.501 249.431 130.236C249.581 129.971 249.62 129.657 249.54 129.363C247.085 119.941 236.546 119.953 228.724 120.745C227.267 120.895 227.256 123.193 228.724 123.043V123.078Z" fill="black"/>
<path d="M248.485 131.994C254.529 134.085 256.272 140.852 254.323 146.597C253.841 147.999 256.054 148.608 256.536 147.206C258.922 140.175 256.307 132.27 249.093 129.776C247.694 129.294 247.097 131.511 248.485 131.994Z" fill="black"/>
<path d="M254.954 146.701C256.546 148.479 257.418 150.787 257.401 153.176C257.384 155.564 256.479 157.86 254.862 159.615C253.887 160.764 255.504 162.35 256.49 161.247C258.521 159.049 259.656 156.168 259.67 153.174C259.685 150.179 258.579 147.287 256.571 145.069C255.607 143.92 253.99 145.575 254.954 146.701Z" fill="black"/>
<path d="M256.547 142.909C258.008 142.588 259.507 142.484 260.997 142.599C262.477 142.702 262.465 140.404 260.997 140.301C259.301 140.184 257.597 140.315 255.94 140.692C254.506 141.025 255.114 143.242 256.547 142.909Z" fill="black"/>
</g>
<defs>
<clipPath id="clip0_18:124">
<rect width="265" height="233" fill="white"/>
</clipPath>
</defs>
</svg>
