<svg width="157" height="219" viewBox="0 0 157 219" fill="none" xmlns="http://www.w3.org/2000/svg">
<g clip-path="url(#clip0_44:280)">
<path d="M145.11 164.66C145.11 164.66 151.93 137.35 153.44 110.05C155.23 77.7 159.44 24 153.77 16C148.1 8 138.77 13 136.77 19C134.77 25 124.11 67.22 124.11 67.22C124.11 67.22 115.77 19.16 114.44 11C113.11 2.84 109.19 0 103.69 0C98.1901 0 93.8601 4.58003 93.6901 12.22C93.5601 19.65 93.5701 57.89 93.5701 57.89C93.5701 57.89 86.2901 48.89 74.23 48.83C63.07 48.83 53.6801 54.43 47.4001 59.16C36.5701 67.33 42.5101 79.03 52.0701 77.33C63.4001 75.33 67.0701 72.18 75.6201 77C83.7301 81.55 82.4001 93.83 82.4001 93.83C73.0675 105.86 66.9026 120.04 64.4701 135.07C62.3561 148.138 63.3008 161.518 67.23 174.16L76.98 218.94C76.98 218.94 120.59 220.68 152.77 201.02L145.11 164.66Z" fill="#FFDDC4"/>
<path d="M70.78 74.5499C73.4872 71.9674 75.1825 68.5024 75.56 64.78C75.7 63.5 73.7 63.51 73.56 64.78C73.2038 67.979 71.7138 70.9446 69.36 73.14C68.43 74.03 69.84 75.4399 70.78 74.5499Z" fill="#181818"/>
<path d="M72.61 177.33C72.61 177.33 46.27 170.83 35.66 144.11C23.82 114.28 30.33 90.61 33.66 82.44C36.99 74.27 45.19 72.04 51.23 75.83C55.61 78.58 50.94 93.13 54.72 104C57.5 112 63.72 117.33 79.27 117.33C94.82 117.33 77.11 173.83 72.61 177.33Z" fill="#FFDDC4"/>
<path d="M70.87 116.94C79.8408 117.046 88.5451 120.004 95.7222 125.387C102.899 130.77 108.177 138.298 110.79 146.88C111.17 148.11 113.1 147.59 112.72 146.35C109.985 137.348 104.454 129.451 96.9294 123.804C89.4049 118.156 80.2774 115.052 70.87 114.94C70.6048 114.94 70.3504 115.045 70.1629 115.233C69.9754 115.42 69.87 115.675 69.87 115.94C69.87 116.205 69.9754 116.459 70.1629 116.647C70.3504 116.835 70.6048 116.94 70.87 116.94Z" fill="#181818"/>
<path d="M132.56 172.24C137.116 171.203 141.44 169.328 145.31 166.71C146.37 165.99 145.37 164.26 144.31 164.98C140.588 167.505 136.426 169.313 132.04 170.31C130.79 170.6 131.32 172.52 132.57 172.24H132.56Z" fill="#181818"/>
<path d="M108.35 136.01C109.765 127.675 114.326 120.201 121.09 115.13C122.09 114.37 121.09 112.63 120.09 113.4C112.874 118.737 107.984 126.641 106.43 135.48C106.21 136.74 108.14 137.28 108.36 136.01H108.35Z" fill="#181818"/>
<path d="M83.61 94C98.23 86.15 118.03 83.0999 133.61 89.5999C134.8 90.0899 135.32 88.1599 134.15 87.6699C118.07 80.9699 97.64 84.19 82.59 92.27C81.46 92.88 82.47 94.61 83.59 94H83.61Z" fill="#181818"/>
<path d="M92.8101 58.58C93.3001 68.3 94.4701 77.97 95.9001 87.58C96.0901 88.85 98.02 88.3099 97.83 87.0499C96.43 77.5999 95.29 68.11 94.83 58.57C94.77 57.29 92.77 57.28 92.83 58.57L92.8101 58.58Z" fill="#181818"/>
<path d="M122.51 84.25C123.13 78.9167 123.89 73.5833 124.79 68.25C125.01 67 123.08 66.45 122.86 67.72C121.933 73.22 121.15 78.7367 120.51 84.27C120.37 85.55 122.37 85.54 122.51 84.27V84.25Z" fill="#181818"/>
<path d="M44.09 74.2801C45.5967 74.0383 47.1407 74.2027 48.5628 74.7564C49.9848 75.3101 51.2335 76.233 52.18 77.4301C53 78.4301 54.41 77.0101 53.6 76.0201C52.4053 74.5803 50.8508 73.4823 49.0944 72.8377C47.3381 72.1932 45.4424 72.0249 43.6 72.3501C42.33 72.5601 42.87 74.4901 44.13 74.2801H44.09Z" fill="#181818"/>
<path d="M31.95 29.9399C33.2433 37.6799 34.53 45.4266 35.81 53.1799C36.02 54.4399 37.95 53.8999 37.74 52.6399C36.4467 44.8999 35.16 37.1566 33.88 29.4099C33.67 28.1399 31.75 28.6799 31.95 29.9399Z" fill="#181818"/>
<path d="M0.489966 47.0599L20.87 58.9399C21.0985 59.0595 21.3644 59.0862 21.6121 59.0143C21.8598 58.9424 22.0702 58.7776 22.1993 58.5543C22.3283 58.331 22.3661 58.0664 22.3048 57.8159C22.2434 57.5654 22.0876 57.3483 21.87 57.21L1.49998 45.34C1.27438 45.238 1.01898 45.2234 0.78321 45.2988C0.547438 45.3743 0.348068 45.5346 0.223639 45.7486C0.0992102 45.9626 0.0585781 46.2152 0.109625 46.4574C0.160673 46.6996 0.299763 46.9143 0.499976 47.0599H0.489966Z" fill="#181818"/>
<path d="M2.60005 80.44L25.8 76.36C27.06 76.14 26.5201 74.21 25.2601 74.44L2.06004 78.52C0.800041 78.74 1.34005 80.67 2.60005 80.44Z" fill="#181818"/>
</g>
<defs>
<clipPath id="clip0_44:280">
<rect width="156.63" height="218.97" fill="white"/>
</clipPath>
</defs>
</svg>
