<svg width="348" height="332" viewBox="0 0 348 332" fill="none" xmlns="http://www.w3.org/2000/svg">
<g clip-path="url(#clip0_18:116)">
<path d="M205.588 279.684L203.216 241.578C203.216 241.578 250.372 188.521 226.002 148.098C204.183 111.953 163.408 102.746 140.023 102.113C126.459 101.742 124.627 116.605 131.8 123.132C137.303 128.095 149.276 132.542 149.276 132.542C149.276 132.542 140.594 134.443 131.677 137.277C121.776 140.426 126.819 152.178 133.838 155.371C141.419 158.827 153.073 157.316 153.073 157.316L154.601 171.974C145.484 179.229 138.88 189.167 135.723 200.383C130.409 219.155 131.526 275.434 131.526 275.434C131.526 275.434 160.061 292.399 205.588 279.684Z" fill="#FFDDC4"/>
<path d="M84.598 53.0289L315.276 107.524C315.803 107.65 316.295 107.891 316.718 108.228C317.141 108.566 317.484 108.993 317.724 109.478C317.964 109.963 318.093 110.495 318.104 111.036C318.115 111.577 318.007 112.114 317.787 112.608L301.025 150.133L316.984 181.871C317.333 182.571 317.45 183.364 317.317 184.135C317.185 184.906 316.81 185.614 316.248 186.158C315.685 186.701 314.964 187.051 314.189 187.157C313.414 187.262 312.625 187.118 311.938 186.745L285.785 172.465L266.555 200.629C266.275 201.041 265.915 201.391 265.496 201.659C265.077 201.927 264.608 202.107 264.117 202.187C263.626 202.268 263.124 202.249 262.641 202.129C262.158 202.01 261.704 201.794 261.307 201.494L79.1436 64.7617C73.4595 60.4338 77.6902 51.4121 84.598 53.0289Z" fill="#13B0BB"/>
<path d="M284.091 173.537C231.72 145.963 179.39 118.323 127.101 90.6174C112.567 82.9383 98.0115 75.2592 83.4343 67.5799C83.2054 67.4637 83.0321 67.2614 82.9523 67.0174C82.8726 66.7734 82.893 66.5076 83.0092 66.2787C83.1253 66.0498 83.3277 65.8765 83.5717 65.7967C83.8157 65.717 84.0814 65.7374 84.3103 65.8536C136.67 93.4361 188.997 121.075 241.292 148.769C255.837 156.454 270.393 164.133 284.959 171.807C285.188 171.923 285.361 172.125 285.441 172.369C285.52 172.613 285.5 172.879 285.384 173.108C285.268 173.337 285.065 173.51 284.821 173.59C284.577 173.67 284.312 173.649 284.083 173.533L284.091 173.537Z" fill="#181818"/>
<path d="M183.953 144.289C183.953 144.289 175.507 124.743 173.318 120.159C170.846 115.019 166.093 109.926 159.309 110.76C155.072 111.28 151.051 116.338 150.283 123.307C148.921 134.739 151.812 152.379 151.812 152.379L183.953 144.289Z" fill="#FFDDC4"/>
<path d="M151.277 156.535C150.518 149.475 149.867 142.415 148.986 135.381C148.262 129.727 147.442 124.264 149.297 118.747C149.685 117.577 151.591 117.947 151.186 119.131C149.203 125.049 150.402 130.943 151.124 136.965C151.908 143.441 152.532 149.933 153.195 156.413C153.335 157.656 151.421 157.77 151.272 156.522L151.277 156.535Z" fill="#181818"/>
<path d="M193.316 168.49C190.573 160.522 187.352 152.726 183.671 145.145C183.141 144.051 184.766 142.987 185.288 144.098C189.05 151.826 192.342 159.775 195.146 167.9C195.559 169.075 193.716 169.67 193.303 168.495L193.316 168.49Z" fill="#181818"/>
<path d="M300.251 150.804L124.035 76.9378L77.7711 57.5425C76.6182 57.0552 77.5028 55.3333 78.6471 55.8163L254.863 129.683L301.127 149.078C302.271 149.561 301.395 151.287 300.251 150.804Z" fill="#181818"/>
</g>
<defs>
<clipPath id="clip0_18:116">
<rect width="272" height="233" fill="white" transform="matrix(-0.891756 -0.452517 -0.452517 0.891756 348 124)"/>
</clipPath>
</defs>
</svg>
