<svg width="223" height="239" viewBox="0 0 223 239" fill="none" xmlns="http://www.w3.org/2000/svg">
<g clip-path="url(#clip0_44:262)">
<path d="M222.43 179.47L178.43 151.47C178.43 151.47 174.29 131.78 163.24 117.06C149.34 98.5401 133.85 85.32 125.69 80.64C120.07 77.42 112.69 78.1401 109.58 83.4401C106.47 88.7401 108.23 96.7601 111.51 101.97C114.79 107.18 122.51 116.97 126.37 132.97C126.37 132.97 97.0799 129.64 77.9799 144.7C77.9799 144.7 36.9799 113.96 28.7199 108.17C20.4599 102.38 14.24 102.5 9.47001 104.7C3.15001 107.61 1.64998 115.98 5.55998 121.77C9.46998 127.56 56.9 186.04 62.3 192.41C67.7 198.78 71.6099 201.89 87.9499 207.46C106.78 213.88 137.18 216.34 137.18 216.34L178.18 238.34C178.18 238.34 200.82 219.22 222.43 179.47Z" fill="#FFDDC4"/>
<path d="M124.05 87.31C127.38 93.1 134.7 98.97 141.38 94.56C142.31 93.95 141.44 92.45 140.5 93.06C134.6 96.96 128.4 91.38 125.55 86.44C125.425 86.2609 125.238 86.1352 125.024 86.0879C124.811 86.0406 124.588 86.0752 124.399 86.1847C124.211 86.2942 124.07 86.4707 124.005 86.6791C123.94 86.8876 123.956 87.1128 124.05 87.31V87.31Z" fill="#181818"/>
<path d="M67.82 198.24C67.82 198.24 10.02 155.81 4.37004 151.03C3.1498 150.045 2.14301 148.821 1.41118 147.434C0.679343 146.046 0.237771 144.524 0.113324 142.961C-0.0111234 141.397 0.184127 139.825 0.687298 138.339C1.19047 136.854 1.99098 135.486 3.03996 134.32C6.46996 130.41 13.41 129.78 18.04 132.82C22.67 135.86 67.82 198.24 67.82 198.24Z" fill="#FFDDC4"/>
<path d="M109.54 56.34C105.483 56.34 101.518 57.5428 98.1452 59.7965C94.7723 62.0502 92.1436 65.2534 90.5912 69.0012C89.0389 72.7489 88.6326 76.8727 89.424 80.8513C90.2154 84.8298 92.1689 88.4843 95.0373 91.3527C97.9056 94.2211 101.56 96.1745 105.539 96.9659C109.517 97.7573 113.641 97.3511 117.389 95.7988C121.137 94.2464 124.34 91.6176 126.593 88.2448C128.847 84.8719 130.05 80.9065 130.05 76.85C130.047 71.4112 127.886 66.196 124.04 62.3502C120.194 58.5044 114.979 56.3426 109.54 56.34V56.34ZM109.54 90.89C106.771 90.89 104.064 90.0689 101.762 88.5306C99.4598 86.9922 97.6653 84.8057 96.6056 82.2476C95.546 79.6894 95.2688 76.8744 95.809 74.1587C96.3492 71.443 97.6826 68.9484 99.6405 66.9905C101.598 65.0325 104.093 63.6992 106.809 63.159C109.524 62.6188 112.339 62.8961 114.898 63.9557C117.456 65.0153 119.642 66.8097 121.181 69.112C122.719 71.4143 123.54 74.121 123.54 76.89C123.529 80.596 122.05 84.1467 119.425 86.7636C116.801 89.3805 113.246 90.85 109.54 90.85V90.89Z" fill="#FFE975"/>
<path d="M106.4 0H110.12C110.799 0 111.45 0.269714 111.93 0.749807C112.41 1.2299 112.68 1.88105 112.68 2.56V59.06C112.68 59.4101 112.541 59.7458 112.293 59.9934C112.046 60.2409 111.71 60.38 111.36 60.38H107.73C107.38 60.38 107.044 60.2409 106.797 59.9934C106.549 59.7458 106.41 59.4101 106.41 59.06V0H106.4Z" fill="#FFE975"/>
<path d="M107.83 8.16003V10.67C107.83 11.7083 108.672 12.5499 109.71 12.5499H116.37C117.408 12.5499 118.25 11.7083 118.25 10.67V8.16003C118.25 7.12174 117.408 6.27991 116.37 6.27991L109.71 6.27991C108.672 6.27991 107.83 7.12174 107.83 8.16003Z" fill="#FFE975"/>
<path d="M101.17 1.88989V4.3999C101.17 5.4382 102.012 6.28003 103.05 6.28003L109.71 6.28003C110.748 6.28003 111.59 5.4382 111.59 4.3999V1.88989C111.59 0.851597 110.748 0.0100098 109.71 0.0100098L103.05 0.0100098C102.012 0.0100098 101.17 0.851597 101.17 1.88989Z" fill="#FFE975"/>
<path d="M91.9 14.4301V16.9401C91.9 17.9784 92.7417 18.8199 93.78 18.8199H109.71C110.748 18.8199 111.59 17.9784 111.59 16.9401V14.4301C111.59 13.3918 110.748 12.5499 109.71 12.5499H93.78C92.7417 12.5499 91.9 13.3918 91.9 14.4301Z" fill="#FFE975"/>
<path d="M59.5599 173.49C59.5599 173.49 39.3598 142.49 49.1998 113.57C59.0398 84.6499 85.8999 77.48 98.4899 76.85C111.08 76.22 113.69 83.27 112.68 90.31C111.67 97.35 105 100.69 99.4999 103C93.9999 105.31 81.85 109.23 79.39 124.57C76.93 139.91 83.58 148.16 90.68 154.67L59.5599 173.49Z" fill="#FFDDC4"/>
<path d="M81.1701 143.03C84.3201 147.71 88.1701 152.03 93.6701 153.77C94.7401 154.1 95.2 152.43 94.14 152.09C89.05 150.52 85.5501 146.44 82.6701 142.16C82.0501 141.23 80.5501 142.1 81.1701 143.03V143.03Z" fill="#181818"/>
<path d="M125.33 144.96C126.855 141.292 127.245 137.252 126.45 133.36C126.23 132.26 124.55 132.73 124.77 133.82C125.478 137.411 125.091 141.132 123.66 144.5C123.23 145.5 124.91 145.98 125.33 144.96Z" fill="#181818"/>
<path d="M12.0199 132.51C29.3199 154.4 47.4499 175.59 65.7699 196.62C66.5099 197.46 67.7699 196.23 66.9999 195.39C48.6799 174.39 30.55 153.17 13.25 131.29C12.56 130.41 11.3399 131.65 12.0199 132.51V132.51Z" fill="#181818"/>
<path d="M57.9001 174.13C47.4201 158.56 45.01 140.3 47.56 121.99C47.71 120.9 46.0401 120.43 45.8901 121.53C43.2701 140.3 45.6501 159.04 56.4001 175C57.0201 175.92 58.5201 175.06 57.9001 174.13Z" fill="#181818"/>
<path d="M4.88 109.66C9.74 114.16 20.52 126.41 14.88 133.1C14.16 133.95 15.39 135.18 16.11 134.33C22.89 126.33 12 113.84 6.10998 108.43C5.28998 107.68 4.10989 108.9 4.88989 109.66H4.88Z" fill="#181818"/>
<path d="M0.44999 140.6C6.20999 143.3 19.6899 151.38 16.3899 159.15C15.9599 160.15 17.4599 161.05 17.8899 160.02C19.6599 155.85 17.8899 152.11 14.8899 149.02C10.9707 144.941 6.35932 141.589 1.26994 139.12C0.269937 138.65 -0.610058 140.12 0.399942 140.62L0.44999 140.6Z" fill="#181818"/>
<path d="M111.45 81.9C112.658 84.117 113.013 86.699 112.45 89.16C112.21 90.25 113.88 90.72 114.13 89.63C114.808 86.7168 114.403 83.6564 112.99 81.02C112.46 80.02 110.99 80.91 111.49 81.9H111.45Z" fill="#181818"/>
<path d="M87.6802 79.85C92.5502 86.85 103.52 84.39 110.37 82.28C111.44 81.95 110.99 80.28 109.91 80.6C104.02 82.42 93.4502 85.08 89.1802 78.97C88.5502 78.07 87.0402 78.97 87.6802 79.85Z" fill="#181818"/>
</g>
<defs>
<clipPath id="clip0_44:262">
<rect width="222.43" height="238.32" fill="white"/>
</clipPath>
</defs>
</svg>
