<svg width="168" height="251" viewBox="0 0 168 251" fill="none" xmlns="http://www.w3.org/2000/svg">
<g clip-path="url(#clip0_18:167)">
<path d="M31.5299 236.7C31.5299 236.7 37.81 191.7 42.92 171.59C49.37 146.25 79.8102 126.92 79.8102 126.92C79.8102 126.92 67.1403 131.59 55.1403 131.36C43.1403 131.13 42.6401 120.78 44.4801 114.92C44.4801 114.92 29.8099 111.36 36.0299 95.1399C42.2499 78.9199 75.2203 68.9199 99.1403 61.5899C129.59 52.2499 167.68 75.7099 167.81 122.7C167.92 164.03 131.69 197.79 131.69 197.79L116.95 250.3C116.95 250.3 73.1699 255.03 31.5299 236.7Z" fill="#FFDDC4"/>
<path d="M45.1102 116.76C47.4527 116.965 49.8121 116.681 52.0394 115.927C54.2667 115.173 56.3134 113.965 58.0501 112.38C59.0501 111.52 57.6005 110.11 56.6405 110.96C55.0895 112.362 53.2623 113.424 51.2767 114.079C49.2911 114.733 47.1907 114.965 45.1102 114.76C43.8302 114.65 43.8402 116.65 45.1102 116.76Z" fill="black"/>
<path d="M137.03 0.769853C105.37 -4.89015 82.3702 22.2699 82.3702 22.2699C82.3702 22.2699 59.3698 -4.89015 27.6998 0.769853C-3.97019 6.42985 -4.06019 39.0798 5.69981 59.9398C25.0298 101.27 82.3702 128.27 82.3702 128.27C82.3702 128.27 139.7 101.27 159.03 59.9398C168.79 39.0798 168.7 6.43985 137.03 0.769853Z" fill="#FF8878"/>
<path d="M90.4802 143.36C90.4802 143.36 78.8304 114.5 76.6604 102.5C74.4904 90.5 79.0503 80.66 88.6003 79.5C98.1503 78.34 122.7 122.5 122.7 122.5L90.4802 143.36Z" fill="#FFDDC4"/>
<path d="M114.81 109.77C118.81 116.25 123.02 122.583 127.44 128.77C128.18 129.77 129.92 128.77 129.16 127.77C124.74 121.583 120.534 115.25 116.54 108.77C115.87 107.68 114.14 108.68 114.81 109.77Z" fill="black"/>
<path d="M124.01 120.76C126.677 115.833 129.523 110.993 132.55 106.24C133.24 105.15 131.55 104.15 130.82 105.24C127.82 109.993 124.973 114.833 122.28 119.76C121.66 120.89 123.39 121.9 124.01 120.76Z" fill="black"/>
<path d="M83.1701 128.54C86.3968 137.78 89.6303 147.023 92.8703 156.27C93.2903 157.48 95.22 156.96 94.8 155.74C91.56 146.5 88.3269 137.257 85.1003 128.01C84.6703 126.8 82.7401 127.32 83.1701 128.54Z" fill="black"/>
<path d="M59.5501 169.65C62.2556 163.456 66.4804 158.046 71.8328 153.919C77.1852 149.792 83.4922 147.082 90.1702 146.04C91.4402 145.83 90.9004 143.91 89.6404 144.11C82.7125 145.213 76.1719 148.037 70.618 152.322C65.064 156.608 60.6743 162.218 57.8504 168.64C57.3404 169.81 59.0604 170.83 59.5804 169.64L59.5501 169.65Z" fill="black"/>
<path d="M84.7701 81.6299C86.6401 92.8299 95.7701 103.63 108.12 101.18C109.39 100.93 108.85 99 107.59 99.25C96.3299 101.46 88.3697 91.09 86.6997 81.1C86.4797 79.83 84.5601 80.3699 84.7701 81.6299Z" fill="black"/>
<path d="M14.68 59.0199C7.27004 44.8699 4.41049 26.5199 17.1405 14.4199C18.0705 13.5299 16.6601 12.1199 15.7201 13.0099C2.32008 25.7499 5.13006 45.0899 12.9501 60.0098C13.5501 61.1498 15.27 60.1399 14.68 59.0098V59.0199Z" fill="white"/>
</g>
<defs>
<clipPath id="clip0_18:167">
<rect width="167.81" height="250.85" fill="white"/>
</clipPath>
</defs>
</svg>
