<svg width="208" height="316" viewBox="0 0 208 316" fill="none" xmlns="http://www.w3.org/2000/svg">
<g clip-path="url(#clip0_44:241)">
<path d="M75.1901 315.38L101.88 273.49C101.88 273.49 189.22 229.49 195.38 226.33C201.54 223.17 208.38 214.83 204.22 205.99C204.22 205.99 210.38 200.33 206.72 189.99C203.06 179.65 192.55 181.33 187.22 182.33C181.89 183.33 138.71 194.49 138.71 194.49C138.71 194.49 160.71 183.99 163.71 163.33C166.35 145.13 158.04 133.99 143.87 125.66C129.7 117.33 118.37 119.49 114.54 125.66C110.71 131.83 113.54 139.16 117.54 141.66C121.54 144.16 131.21 149.49 131.04 157.49C130.87 165.49 123.61 173.57 107.5 175.9C91.3899 178.23 52.04 163.9 21.37 229.55L-0.0101318 269.76C-0.0101318 269.76 34.3601 307.61 75.1901 315.38Z" fill="#FFDDC4"/>
<path d="M121.21 122.71C127.21 126.41 139.49 133.9 146.21 128.43C147.21 127.61 145.78 126.21 144.79 127.01C139.23 131.54 127.02 124.01 122.21 121.01C121.12 120.33 120.11 122.06 121.21 122.74V122.71Z" fill="#181818"/>
<path d="M133.22 73.16C133.22 91.02 118.74 120.16 100.88 120.16C83.02 120.16 68.5499 90.99 68.5499 73.16C68.699 64.6827 72.1714 56.603 78.2191 50.6606C84.2669 44.7183 92.4063 41.3887 100.885 41.3887C109.363 41.3887 117.503 44.7183 123.551 50.6606C129.599 56.603 133.071 64.6827 133.22 73.16Z" fill="#A6AFF0"/>
<path d="M100.88 147.05C96.2387 147.05 91.7876 145.206 88.5057 141.925C85.2239 138.643 83.38 134.191 83.38 129.55V110.72H118.38V129.55C118.381 131.849 117.93 134.125 117.051 136.249C116.172 138.373 114.882 140.302 113.257 141.927C111.632 143.553 109.702 144.842 107.578 145.721C105.455 146.6 103.179 147.051 100.88 147.05Z" fill="#181818"/>
<path d="M90.5299 125.94L117.88 116.27C119.08 115.85 118.56 113.91 117.35 114.35L89.9998 124.01C88.7998 124.44 89.3199 126.37 90.5299 125.94Z" fill="white"/>
<path d="M90.5299 135.62L117.88 125.96C119.08 125.53 118.56 123.6 117.35 124.03L89.9998 133.69C88.7998 134.12 89.3199 136.05 90.5299 135.62Z" fill="white"/>
<path d="M142.67 21.5098L122.95 34.3898C121.87 35.0898 122.87 36.8198 123.95 36.1198L143.67 23.2398C144.74 22.5398 143.74 20.8098 142.67 21.5098Z" fill="#181818"/>
<path d="M58.0801 23.2398L77.8101 36.1198C78.8901 36.8198 79.8901 35.1199 78.8101 34.3899L59.0801 21.5099C58.0001 20.8099 57.0001 22.5098 58.0801 23.2398Z" fill="#181818"/>
<path d="M100.09 0.939941L99.67 24.4899C99.67 24.7551 99.7752 25.0095 99.9628 25.1971C100.15 25.3846 100.405 25.4899 100.67 25.4899C100.935 25.4899 101.19 25.3846 101.377 25.1971C101.565 25.0095 101.67 24.7551 101.67 24.4899L102.09 0.939941C102.09 0.674725 101.985 0.420385 101.797 0.232849C101.609 0.0453127 101.355 -0.0600586 101.09 -0.0600586C100.825 -0.0600586 100.57 0.0453127 100.383 0.232849C100.195 0.420385 100.09 0.674725 100.09 0.939941Z" fill="#181818"/>
<path d="M89.9501 80.1698C96.3853 90.9499 98.7244 103.686 96.5399 116.05C96.3199 117.31 98.2501 117.85 98.4701 116.59C100.781 103.703 98.3707 90.414 91.6801 79.1598C91.5417 78.9421 91.3246 78.7864 91.0741 78.725C90.8236 78.6637 90.5589 78.7014 90.3356 78.8305C90.1123 78.9596 89.9475 79.1699 89.8756 79.4176C89.8038 79.6654 89.8305 79.9312 89.9501 80.1598V80.1698Z" fill="#181818"/>
<path d="M111.93 79.1601C105.237 90.4134 102.823 103.702 105.13 116.59C105.36 117.85 107.28 117.31 107.06 116.05C104.876 103.687 107.216 90.9506 113.65 80.1701C113.752 79.9445 113.766 79.6891 113.691 79.4534C113.616 79.2176 113.455 79.0182 113.241 78.8938C113.027 78.7694 112.775 78.7287 112.533 78.7798C112.29 78.8308 112.076 78.9699 111.93 79.1701V79.1601Z" fill="#181818"/>
<path d="M91.5198 80.4701C92.6244 78.9883 94.1357 77.8592 95.8699 77.2201C98.8699 76.2201 100.54 78.9501 100.8 81.5601C100.93 82.8301 102.93 82.8401 102.8 81.5601C102.52 78.8101 101.02 75.3501 97.9 74.9301C94.9 74.5401 91.8299 76.8801 90.1099 79.0601C89.3199 80.0601 90.7198 81.4801 91.5198 80.4701Z" fill="#181818"/>
<path d="M113.5 79.0598C111.78 76.8698 108.66 74.5398 105.7 74.9298C102.58 75.3398 101.08 78.8098 100.8 81.5598C100.67 82.8398 102.67 82.8298 102.8 81.5598C103.06 78.9498 104.73 76.1698 107.73 77.2198C109.466 77.8563 110.977 78.9859 112.08 80.4698C112.88 81.4698 114.28 80.0598 113.5 79.0598Z" fill="#181818"/>
<path d="M74.1601 179.04C74.1601 179.04 64.16 165.83 78.3 150.66C92.44 135.49 92.6401 131.16 90.6801 125.49C88.7201 119.82 79.3801 117.83 71.8801 121.16C64.3801 124.49 28.8301 146.49 20.6001 171.16C10.1901 202.41 17.05 222.02 25.05 235.52C33.05 249.02 74.1601 179.04 74.1601 179.04Z" fill="#FFDDC4"/>
<path d="M56.3601 132.33C67.4501 137.74 77.3 129.54 84.84 122.07C85.0283 121.882 85.1342 121.626 85.1342 121.36C85.1342 121.094 85.0283 120.838 84.84 120.65C84.6517 120.462 84.3964 120.356 84.1301 120.356C83.8638 120.356 83.6084 120.462 83.4201 120.65C76.6501 127.37 67.5901 135.59 57.3701 130.65C56.2201 130.09 55.2001 131.81 56.3701 132.37L56.3601 132.33Z" fill="#181818"/>
<path d="M73.9899 179.13C79.1849 188.062 81.4099 198.413 80.3442 208.691C79.2784 218.969 74.9771 228.643 68.06 236.32C67.19 237.32 68.6101 238.69 69.4701 237.73C76.6915 229.737 81.1879 219.657 82.3112 208.944C83.4345 198.23 81.1266 187.437 75.7201 178.12C75.5818 177.902 75.3645 177.746 75.1139 177.685C74.8634 177.624 74.599 177.661 74.3757 177.79C74.1524 177.92 73.9876 178.13 73.9157 178.378C73.8438 178.625 73.8704 178.891 73.9899 179.12V179.13Z" fill="#181818"/>
<path d="M79.6399 220.62C89.0866 216.318 99.3711 214.17 109.75 214.33C110.015 214.33 110.27 214.225 110.457 214.037C110.645 213.85 110.75 213.595 110.75 213.33C110.75 213.065 110.645 212.81 110.457 212.623C110.27 212.435 110.015 212.33 109.75 212.33C99.019 212.189 88.3906 214.429 78.6299 218.89C77.4599 219.43 78.4699 221.15 79.6299 220.62H79.6399Z" fill="#181818"/>
<path d="M85.58 268.23C89.8627 271.735 94.9538 274.114 100.39 275.15C101.65 275.4 102.18 273.47 100.92 273.22C95.8183 272.283 91.0325 270.082 86.9999 266.82C85.9999 266.01 84.58 267.42 85.58 268.23Z" fill="#181818"/>
<path d="M122.46 183.94C137.309 192.891 148.344 206.994 153.46 223.56C153.84 224.79 155.77 224.26 155.39 223.03C150.116 205.963 138.743 191.436 123.44 182.22C123.214 182.118 122.959 182.103 122.723 182.179C122.488 182.254 122.288 182.415 122.164 182.629C122.039 182.843 121.999 183.095 122.05 183.338C122.101 183.58 122.24 183.794 122.44 183.94H122.46Z" fill="#181818"/>
<path d="M151.56 214.71C159.689 211.614 167.986 208.977 176.41 206.81C185.41 204.5 194.71 202.38 203.73 205.57C204.94 206.01 205.47 204.07 204.26 203.65C196.03 200.73 187.56 202.07 179.26 204.04C169.668 206.34 160.235 209.259 151.02 212.78C149.83 213.23 150.35 215.17 151.55 214.71H151.56Z" fill="#181818"/>
</g>
<defs>
<clipPath id="clip0_44:241">
<rect width="207.88" height="315.38" fill="white"/>
</clipPath>
</defs>
</svg>
