<svg width="18" height="14" viewBox="0 0 18 14" fill="none" xmlns="http://www.w3.org/2000/svg">
<path d="M16.1559 0.205917C16.0229 0.0740129 15.8432 0 15.6559 0C15.4686 0 15.2889 0.0740129 15.1559 0.205917L6.92592 8.43592L2.68592 4.16592C2.55294 4.03401 2.37322 3.96 2.18592 3.96C1.99861 3.96 1.8189 4.03401 1.68592 4.16592L0.205917 5.63592C0.0740129 5.7689 0 5.94861 0 6.13592C0 6.32322 0.0740129 6.50294 0.205917 6.63592L6.42592 12.8959C6.5589 13.0278 6.73861 13.1018 6.92592 13.1018C7.11322 13.1018 7.29294 13.0278 7.42592 12.8959L17.6359 2.68592C17.7024 2.62074 17.7553 2.54295 17.7914 2.45709C17.8274 2.37124 17.846 2.27904 17.846 2.18592C17.846 2.09279 17.8274 2.0006 17.7914 1.91474C17.7553 1.82889 17.7024 1.75109 17.6359 1.68592L16.1559 0.205917Z" fill="#FF8878"/>
</svg>
